<svg xmlns="http://www.w3.org/2000/svg" width="106.42" height="123.3" viewBox="0 0 106.42 123.3"><title>cube_1</title><g id="Layer_2" data-name="Layer 2"><g id="cube">
<g class="grp1"><polyline points="0.5 31.5 53.21 0.58 105.92 31.5" fill="none"  stroke-miterlimit="10"/><polygon points="0.5 31.5 0.5 92.36 53.21 122.8 105.92 92.36 105.92 31.5 53.21 61.93 0.5 31.5" fill="none"  stroke-linecap="square" stroke-linejoin="round"/></g>
<g class="grp3"><line x1="14.17" y1="100.26" x2="14.17" y2="47.37" fill="none"  stroke-miterlimit="10"/><line x1="36.48" y1="52.28" x2="36.48" y2="103.3" fill="none"  stroke-miterlimit="10"/><line x1="43.96" y1="64.59" x2="43.96" y2="117.46" fill="none"  stroke-miterlimit="10"/><line x1="98.54" y1="36.29" x2="98.54" y2="89.73" fill="none"  stroke-miterlimit="10"/><line x1="92.2" y1="100.81" x2="92.2" y2="47.92" fill="none"  stroke-miterlimit="10"/><line x1="84.38" y1="44.46" x2="84.38" y2="96.12" fill="none"  stroke-miterlimit="10"/><line x1="62.41" y1="65.15" x2="62.41" y2="118.01" fill="none"  stroke-miterlimit="10"/><line x1="14.17" y1="31.5" x2="59.72" y2="4.4" fill="none"  stroke-miterlimit="10"/><line x1="28.67" y1="39.4" x2="72.02" y2="12.53" fill="none"  stroke-miterlimit="10"/><line x1="28.94" y1="47.92" x2="69.16" y2="22.4" fill="none"  stroke-miterlimit="10"/></g>
<g class="grp2"><line x1="7.83" y1="89.18" x2="7.83" y2="35.74" fill="none"  stroke-miterlimit="10"/><line x1="21.99" y1="43.91" x2="21.99" y2="95.56" fill="none"  stroke-miterlimit="10"/><line x1="28.67" y1="54.72" x2="28.67" y2="108.63" fill="none"  stroke-miterlimit="10"/><line x1="53.21" y1="61.93" x2="53.21" y2="111.82" fill="none"  stroke-miterlimit="10"/><line x1="77.7" y1="55.28" x2="77.7" y2="109.18" fill="none"  stroke-miterlimit="10"/><line x1="69.89" y1="52.83" x2="69.89" y2="103.86" fill="none"  stroke-miterlimit="10"/><line x1="14.17" y1="39.4" x2="58.47" y2="12.53" fill="none"  stroke-miterlimit="10"/><line x1="43.96" y1="47.37" x2="87.6" y2="20.75" fill="none"  stroke-miterlimit="10"/><line x1="43.96" y1="56.59" x2="89.44" y2="29.95" fill="none"  stroke-miterlimit="10"/></g></g></g></svg>