<svg xmlns="http://www.w3.org/2000/svg" width="1220" height="740" viewBox="0 0 1220 740"><title>usa</title><circle cx="69.99" cy="10" r="10"/><circle cx="99.99" cy="10" r="10"/><circle cx="130" cy="10" r="10"/><circle cx="160" cy="10" r="10"/><circle cx="189.99" cy="10" r="10"/><circle cx="69.99" cy="40" r="10"/><circle cx="99.99" cy="40" r="10"/><circle cx="130" cy="40" r="10"/><circle cx="160" cy="40" r="10"/><circle cx="189.99" cy="40" r="10"/><circle cx="219.99" cy="40" r="10"/><circle cx="249.99" cy="40" r="10"/><circle cx="280" cy="40" r="10"/><circle cx="310" cy="40" r="10"/><circle cx="339.99" cy="40" r="10"/><circle cx="1180" cy="40" r="10"/><circle cx="69.99" cy="70.01" r="10"/><circle cx="99.99" cy="70.01" r="10"/><circle cx="130" cy="70.01" r="10"/><circle cx="160" cy="70.01" r="10"/><circle cx="189.99" cy="70.01" r="10"/><circle cx="219.99" cy="70.01" r="10"/><circle cx="249.99" cy="70.01" r="10"/><circle cx="280" cy="70.01" r="10"/><circle cx="310" cy="70.01" r="10"/><circle cx="339.99" cy="70.01" r="10"/><circle cx="369.99" cy="70.01" r="10"/><circle cx="399.99" cy="70.01" r="10"/><circle cx="430" cy="70.01" r="10"/><circle cx="460" cy="70.01" r="10"/><circle cx="489.99" cy="70.01" r="10"/><circle cx="519.99" cy="70.01" r="10"/><circle cx="549.99" cy="70.01" r="10"/><circle cx="580" cy="70.01" r="10"/><circle cx="610" cy="70.01" r="10"/><circle cx="639.99" cy="70.01" r="10"/><circle cx="669.99" cy="70.01" r="10"/><circle cx="1180" cy="70.01" r="10"/><circle cx="1210" cy="70.01" r="10"/><circle cx="39.99" cy="100.01" r="10"/><circle cx="69.99" cy="100.01" r="10"/><circle cx="99.99" cy="100.01" r="10"/><circle cx="130" cy="100.01" r="10"/><circle cx="160" cy="100.01" r="10"/><circle cx="189.99" cy="100.01" r="10"/><circle cx="219.99" cy="100.01" r="10"/><circle cx="249.99" cy="100.01" r="10"/><circle cx="280" cy="100.01" r="10"/><circle cx="310" cy="100.01" r="10"/><circle cx="339.99" cy="100.01" r="10"/><circle cx="369.99" cy="100.01" r="10"/><circle cx="399.99" cy="100.01" r="10"/><circle cx="430" cy="100.01" r="10"/><circle cx="460" cy="100.01" r="10"/><circle cx="489.99" cy="100.01" r="10"/><circle cx="519.99" cy="100.01" r="10"/><circle cx="549.99" cy="100.01" r="10"/><circle cx="580" cy="100.01" r="10"/><circle cx="610" cy="100.01" r="10"/><circle cx="639.99" cy="100.01" r="10"/><circle cx="669.99" cy="100.01" r="10"/><circle cx="700" cy="100.01" r="10"/><circle cx="1150" cy="100.01" r="10"/><circle cx="1180" cy="100.01" r="10"/><circle cx="1210" cy="100.01" r="10"/><circle cx="39.99" cy="130" r="10"/><circle cx="69.99" cy="130" r="10"/><circle cx="99.99" cy="130" r="10"/><circle cx="130" cy="130" r="10"/><circle cx="160" cy="130" r="10"/><circle cx="189.99" cy="130" r="10"/><circle cx="219.99" cy="130" r="10"/><circle cx="249.99" cy="130" r="10"/><circle cx="280" cy="130" r="10"/><circle cx="310" cy="130" r="10"/><circle cx="339.99" cy="130" r="10"/><circle cx="369.99" cy="130" r="10"/><circle cx="399.99" cy="130" r="10"/><circle cx="430" cy="130" r="10"/><circle cx="460" cy="130" r="10"/><circle cx="489.99" cy="130" r="10"/><circle cx="519.99" cy="130" r="10"/><circle cx="549.99" cy="130" r="10"/><circle cx="580" cy="130" r="10"/><circle cx="610" cy="130" r="10"/><circle cx="639.99" cy="130" r="10"/><circle cx="669.99" cy="130" r="10"/><circle cx="700" cy="130" r="10"/><circle cx="730" cy="130" r="10"/><circle cx="760" cy="130" r="10"/><circle cx="789.99" cy="130" r="10"/><circle cx="819.99" cy="130" r="10"/><circle cx="850" cy="130" r="10"/><circle cx="1089.99" cy="130" r="10"/><circle cx="1119.99" cy="130" r="10"/><circle cx="1150" cy="130" r="10"/><circle cx="1180" cy="130" r="10"/><circle cx="10" cy="160" r="10"/><circle cx="39.99" cy="160" r="10"/><circle cx="69.99" cy="160" r="10"/><circle cx="99.99" cy="160" r="10"/><circle cx="130" cy="160" r="10"/><circle cx="160" cy="160" r="10"/><circle cx="189.99" cy="160" r="10"/><circle cx="219.99" cy="160" r="10"/><circle cx="249.99" cy="160" r="10"/><circle cx="280" cy="160" r="10"/><circle cx="310" cy="160" r="10"/><circle cx="339.99" cy="160" r="10"/><circle cx="369.99" cy="160" r="10"/><circle cx="399.99" cy="160" r="10"/><circle cx="430" cy="160" r="10"/><circle cx="460" cy="160" r="10"/><circle cx="489.99" cy="160" r="10"/><circle cx="519.99" cy="160" r="10"/><circle cx="549.99" cy="160" r="10"/><circle cx="580" cy="160" r="10"/><circle cx="610" cy="160" r="10"/><circle cx="639.99" cy="160" r="10"/><circle cx="669.99" cy="160" r="10"/><circle cx="700" cy="160" r="10"/><circle cx="730" cy="160" r="10"/><circle cx="760" cy="160" r="10"/><circle cx="789.99" cy="160" r="10"/><circle cx="850" cy="160" r="10"/><circle cx="880" cy="160" r="10"/><circle cx="1060" cy="160" r="10"/><circle cx="1089.99" cy="160" r="10"/><circle cx="1119.99" cy="160" r="10"/><circle cx="1150" cy="160" r="10"/><circle cx="10" cy="190" r="10"/><circle cx="39.99" cy="190" r="10"/><circle cx="69.99" cy="190" r="10"/><circle cx="99.99" cy="190" r="10"/><circle cx="130" cy="190" r="10"/><circle cx="160" cy="190" r="10"/><circle cx="189.99" cy="190" r="10"/><circle cx="219.99" cy="190" r="10"/><circle cx="249.99" cy="190" r="10"/><circle cx="280" cy="190" r="10"/><circle cx="310" cy="190" r="10"/><circle cx="339.99" cy="190" r="10"/><circle cx="369.99" cy="190" r="10"/><circle cx="399.99" cy="190" r="10"/><circle cx="430" cy="190" r="10"/><circle cx="460" cy="190" r="10"/><circle cx="489.99" cy="190" r="10"/><circle cx="519.99" cy="190" r="10"/><circle cx="549.99" cy="190" r="10"/><circle cx="580" cy="190" r="10"/><circle cx="610" cy="190" r="10"/><circle cx="639.99" cy="190" r="10"/><circle cx="669.99" cy="190" r="10"/><circle cx="700" cy="190" r="10"/><circle cx="730" cy="190" r="10"/><circle cx="760" cy="190" r="10"/><circle cx="789.99" cy="190" r="10"/><circle cx="850" cy="190" r="10"/><circle cx="880" cy="190" r="10"/><circle cx="910" cy="190" r="10"/><circle cx="1030" cy="190" r="10"/><circle cx="1060" cy="190" r="10"/><circle cx="1089.99" cy="190" r="10"/><circle cx="1119.99" cy="190" r="10"/><circle cx="1150" cy="190" r="10"/><circle cx="10" cy="220.01" r="10"/><circle cx="39.99" cy="220.01" r="10"/><circle cx="69.99" cy="220.01" r="10"/><circle cx="99.99" cy="220.01" r="10"/><circle cx="130" cy="220.01" r="10"/><circle cx="160" cy="220.01" r="10"/><circle cx="189.99" cy="220.01" r="10"/><circle cx="219.99" cy="220.01" r="10"/><circle cx="249.99" cy="220.01" r="10"/><circle cx="280" cy="220.01" r="10"/><circle cx="310" cy="220.01" r="10"/><circle cx="339.99" cy="220.01" r="10"/><circle cx="369.99" cy="220.01" r="10"/><circle cx="399.99" cy="220.01" r="10"/><circle cx="430" cy="220.01" r="10"/><circle cx="460" cy="220.01" r="10"/><circle cx="489.99" cy="220.01" r="10"/><circle cx="519.99" cy="220.01" r="10"/><circle cx="549.99" cy="220.01" r="10"/><circle cx="580" cy="220.01" r="10"/><circle cx="610" cy="220.01" r="10"/><circle cx="639.99" cy="220.01" r="10"/><circle cx="669.99" cy="220.01" r="10"/><circle cx="700" cy="220.01" r="10"/><circle cx="730" cy="220.01" r="10"/><circle cx="760" cy="220.01" r="10"/><circle cx="789.99" cy="220.01" r="10"/><circle cx="850" cy="220.01" r="10"/><circle cx="880" cy="220.01" r="10"/><circle cx="910" cy="220.01" r="10"/><circle cx="1000" cy="220.01" r="10"/><circle cx="1030" cy="220.01" r="10"/><circle cx="1060" cy="220.01" r="10"/><circle cx="1089.99" cy="220.01" r="10"/><circle cx="1119.99" cy="220.01" r="10"/><circle cx="1150" cy="220.01" r="10"/><circle cx="10" cy="250.01" r="10"/><circle cx="39.99" cy="250.01" r="10"/><circle cx="69.99" cy="250.01" r="10"/><circle cx="99.99" cy="250.01" r="10"/><circle cx="130" cy="250.01" r="10"/><circle cx="160" cy="250.01" r="10"/><circle cx="189.99" cy="250.01" r="10"/><circle cx="219.99" cy="250.01" r="10"/><circle cx="249.99" cy="250.01" r="10"/><circle cx="280" cy="250.01" r="10"/><circle cx="310" cy="250.01" r="10"/><circle cx="339.99" cy="250.01" r="10"/><circle cx="369.99" cy="250.01" r="10"/><circle cx="399.99" cy="250.01" r="10"/><circle cx="430" cy="250.01" r="10"/><circle cx="460" cy="250.01" r="10"/><circle cx="489.99" cy="250.01" r="10"/><circle cx="519.99" cy="250.01" r="10"/><circle cx="549.99" cy="250.01" r="10"/><circle cx="580" cy="250.01" r="10"/><circle cx="610" cy="250.01" r="10"/><circle cx="639.99" cy="250.01" r="10"/><circle cx="669.99" cy="250.01" r="10"/><circle cx="700" cy="250.01" r="10"/><circle cx="730" cy="250.01" r="10"/><circle cx="760" cy="250.01" r="10"/><circle cx="789.99" cy="250.01" r="10"/><circle cx="850" cy="250.01" r="10"/><circle cx="880" cy="250.01" r="10"/><circle cx="969.99" cy="250.01" r="10"/><circle cx="1000" cy="250.01" r="10"/><circle cx="1030" cy="250.01" r="10"/><circle cx="1060" cy="250.01" r="10"/><circle cx="1089.99" cy="250.01" r="10"/><circle cx="10" cy="280" r="10"/><circle cx="39.99" cy="280" r="10"/><circle cx="69.99" cy="280" r="10"/><circle cx="99.99" cy="280" r="10"/><circle cx="130" cy="280" r="10"/><circle cx="160" cy="280" r="10"/><circle cx="189.99" cy="280" r="10"/><circle cx="219.99" cy="280" r="10"/><circle cx="249.99" cy="280" r="10"/><circle cx="280" cy="280" r="10"/><circle cx="310" cy="280" r="10"/><circle cx="339.99" cy="280" r="10"/><circle cx="369.99" cy="280" r="10"/><circle cx="399.99" cy="280" r="10"/><circle cx="430" cy="280" r="10"/><circle cx="460" cy="280" r="10"/><circle cx="489.99" cy="280" r="10"/><circle cx="519.99" cy="280" r="10"/><circle cx="549.99" cy="280" r="10"/><circle cx="580" cy="280" r="10"/><circle cx="610" cy="280" r="10"/><circle cx="639.99" cy="280" r="10"/><circle cx="669.99" cy="280" r="10"/><circle cx="700" cy="280" r="10"/><circle cx="730" cy="280" r="10"/><circle cx="760" cy="280" r="10"/><circle cx="789.99" cy="280" r="10"/><circle cx="819.99" cy="280" r="10"/><circle cx="850" cy="280" r="10"/><circle cx="880" cy="280" r="10"/><circle cx="910" cy="280" r="10"/><circle cx="939.99" cy="280" r="10"/><circle cx="969.99" cy="280" r="10"/><circle cx="1000" cy="280" r="10"/><circle cx="1030" cy="280" r="10"/><circle cx="1060" cy="280" r="10"/><circle cx="1089.99" cy="280" r="10"/><circle cx="10" cy="310" r="10"/><circle cx="39.99" cy="310" r="10"/><circle cx="69.99" cy="310" r="10"/><circle cx="99.99" cy="310" r="10"/><circle cx="130" cy="310" r="10"/><circle cx="160" cy="310" r="10"/><circle cx="189.99" cy="310" r="10"/><circle cx="219.99" cy="310" r="10"/><circle cx="249.99" cy="310" r="10"/><circle cx="280" cy="310" r="10"/><circle cx="310" cy="310" r="10"/><circle cx="339.99" cy="310" r="10"/><circle cx="369.99" cy="310" r="10"/><circle cx="399.99" cy="310" r="10"/><circle cx="430" cy="310" r="10"/><circle cx="460" cy="310" r="10"/><circle cx="489.99" cy="310" r="10"/><circle cx="519.99" cy="310" r="10"/><circle cx="549.99" cy="310" r="10"/><circle cx="580" cy="310" r="10"/><circle cx="610" cy="310" r="10"/><circle cx="639.99" cy="310" r="10"/><circle cx="669.99" cy="310" r="10"/><circle cx="700" cy="310" r="10"/><circle cx="730" cy="310" r="10"/><circle cx="760" cy="310" r="10"/><circle cx="789.99" cy="310" r="10"/><circle cx="819.99" cy="310" r="10"/><circle cx="850" cy="310" r="10"/><circle cx="880" cy="310" r="10"/><circle cx="910" cy="310" r="10"/><circle cx="939.99" cy="310" r="10"/><circle cx="969.99" cy="310" r="10"/><circle cx="1000" cy="310" r="10"/><circle cx="1030" cy="310" r="10"/><circle cx="1060" cy="310" r="10"/><circle cx="1089.99" cy="310" r="10"/><circle cx="10" cy="340" r="10"/><circle cx="39.99" cy="340" r="10"/><circle cx="69.99" cy="340" r="10"/><circle cx="99.99" cy="340" r="10"/><circle cx="130" cy="340" r="10"/><circle cx="160" cy="340" r="10"/><circle cx="189.99" cy="340" r="10"/><circle cx="219.99" cy="340" r="10"/><circle cx="249.99" cy="340" r="10"/><circle cx="280" cy="340" r="10"/><circle cx="310" cy="340" r="10"/><circle cx="339.99" cy="340" r="10"/><circle cx="369.99" cy="340" r="10"/><circle cx="399.99" cy="340" r="10"/><circle cx="430" cy="340" r="10"/><circle cx="460" cy="340" r="10"/><circle cx="489.99" cy="340" r="10"/><circle cx="519.99" cy="340" r="10"/><circle cx="549.99" cy="340" r="10"/><circle cx="580" cy="340" r="10"/><circle cx="610" cy="340" r="10"/><circle cx="639.99" cy="340" r="10"/><circle cx="669.99" cy="340" r="10"/><circle cx="700" cy="340" r="10"/><circle cx="730" cy="340" r="10"/><circle cx="760" cy="340" r="10"/><circle cx="789.99" cy="340" r="10"/><circle cx="819.99" cy="340" r="10"/><circle cx="850" cy="340" r="10"/><circle cx="939.99" cy="340" r="10"/><circle cx="969.99" cy="340" r="10"/><circle cx="1000" cy="340" r="10"/><circle cx="1030" cy="340" r="10"/><circle cx="1060" cy="340" r="10"/><circle cx="39.99" cy="370.01" r="10"/><circle cx="69.99" cy="370.01" r="10"/><circle cx="99.99" cy="370.01" r="10"/><circle cx="130" cy="370.01" r="10"/><circle cx="160" cy="370.01" r="10"/><circle cx="189.99" cy="370.01" r="10"/><circle cx="219.99" cy="370.01" r="10"/><circle cx="249.99" cy="370.01" r="10"/><circle cx="280" cy="370.01" r="10"/><circle cx="310" cy="370.01" r="10"/><circle cx="339.99" cy="370.01" r="10"/><circle cx="369.99" cy="370.01" r="10"/><circle cx="399.99" cy="370.01" r="10"/><circle cx="430" cy="370.01" r="10"/><circle cx="460" cy="370.01" r="10"/><circle cx="489.99" cy="370.01" r="10"/><circle cx="519.99" cy="370.01" r="10"/><circle cx="549.99" cy="370.01" r="10"/><circle cx="580" cy="370.01" r="10"/><circle cx="610" cy="370.01" r="10"/><circle cx="639.99" cy="370.01" r="10"/><circle cx="669.99" cy="370.01" r="10"/><circle cx="700" cy="370.01" r="10"/><circle cx="730" cy="370.01" r="10"/><circle cx="760" cy="370.01" r="10"/><circle cx="789.99" cy="370.01" r="10"/><circle cx="819.99" cy="370.01" r="10"/><circle cx="850" cy="370.01" r="10"/><circle cx="939.99" cy="370.01" r="10"/><circle cx="969.99" cy="370.01" r="10"/><circle cx="1000" cy="370.01" r="10"/><circle cx="1030" cy="370.01" r="10"/><circle cx="1060" cy="370.01" r="10"/><circle cx="1089.99" cy="370.01" r="10"/><circle cx="39.99" cy="400.01" r="10"/><circle cx="69.99" cy="400.01" r="10"/><circle cx="99.99" cy="400.01" r="10"/><circle cx="130" cy="400.01" r="10"/><circle cx="160" cy="400.01" r="10"/><circle cx="189.99" cy="400.01" r="10"/><circle cx="219.99" cy="400.01" r="10"/><circle cx="249.99" cy="400.01" r="10"/><circle cx="280" cy="400.01" r="10"/><circle cx="310" cy="400.01" r="10"/><circle cx="339.99" cy="400.01" r="10"/><circle cx="369.99" cy="400.01" r="10"/><circle cx="399.99" cy="400.01" r="10"/><circle cx="430" cy="400.01" r="10"/><circle cx="460" cy="400.01" r="10"/><circle cx="489.99" cy="400.01" r="10"/><circle cx="519.99" cy="400.01" r="10"/><circle cx="549.99" cy="400.01" r="10"/><circle cx="580" cy="400.01" r="10"/><circle cx="610" cy="400.01" r="10"/><circle cx="639.99" cy="400.01" r="10"/><circle cx="669.99" cy="400.01" r="10"/><circle cx="700" cy="400.01" r="10"/><circle cx="730" cy="400.01" r="10"/><circle cx="760" cy="400.01" r="10"/><circle cx="789.99" cy="400.01" r="10"/><circle cx="819.99" cy="400.01" r="10"/><circle cx="850" cy="400.01" r="10"/><circle cx="880" cy="400.01" r="10"/><circle cx="910" cy="400.01" r="10"/><circle cx="939.99" cy="400.01" r="10"/><circle cx="969.99" cy="400.01" r="10"/><circle cx="1000" cy="400.01" r="10"/><circle cx="1030" cy="400.01" r="10"/><circle cx="1060" cy="400.01" r="10"/><circle cx="1089.99" cy="400.01" r="10"/><circle cx="69.99" cy="430" r="10"/><circle cx="99.99" cy="430" r="10"/><circle cx="130" cy="430" r="10"/><circle cx="160" cy="430" r="10"/><circle cx="189.99" cy="430" r="10"/><circle cx="219.99" cy="430" r="10"/><circle cx="249.99" cy="430" r="10"/><circle cx="280" cy="430" r="10"/><circle cx="310" cy="430" r="10"/><circle cx="339.99" cy="430" r="10"/><circle cx="369.99" cy="430" r="10"/><circle cx="399.99" cy="430" r="10"/><circle cx="430" cy="430" r="10"/><circle cx="460" cy="430" r="10"/><circle cx="489.99" cy="430" r="10"/><circle cx="519.99" cy="430" r="10"/><circle cx="549.99" cy="430" r="10"/><circle cx="580" cy="430" r="10"/><circle cx="610" cy="430" r="10"/><circle cx="639.99" cy="430" r="10"/><circle cx="669.99" cy="430" r="10"/><circle cx="700" cy="430" r="10"/><circle cx="730" cy="430" r="10"/><circle cx="760" cy="430" r="10"/><circle cx="789.99" cy="430" r="10"/><circle cx="819.99" cy="430" r="10"/><circle cx="850" cy="430" r="10"/><circle cx="880" cy="430" r="10"/><circle cx="910" cy="430" r="10"/><circle cx="939.99" cy="430" r="10"/><circle cx="969.99" cy="430" r="10"/><circle cx="1000" cy="430" r="10"/><circle cx="1030" cy="430" r="10"/><circle cx="1060" cy="430" r="10"/><circle cx="1089.99" cy="430" r="10"/><circle cx="99.99" cy="460" r="10"/><circle cx="130" cy="460" r="10"/><circle cx="160" cy="460" r="10"/><circle cx="189.99" cy="460" r="10"/><circle cx="219.99" cy="460" r="10"/><circle cx="249.99" cy="460" r="10"/><circle cx="280" cy="460" r="10"/><circle cx="310" cy="460" r="10"/><circle cx="339.99" cy="460" r="10"/><circle cx="369.99" cy="460" r="10"/><circle cx="399.99" cy="460" r="10"/><circle cx="430" cy="460" r="10"/><circle cx="460" cy="460" r="10"/><circle cx="489.99" cy="460" r="10"/><circle cx="519.99" cy="460" r="10"/><circle cx="549.99" cy="460" r="10"/><circle cx="580" cy="460" r="10"/><circle cx="610" cy="460" r="10"/><circle cx="639.99" cy="460" r="10"/><circle cx="669.99" cy="460" r="10"/><circle cx="700" cy="460" r="10"/><circle cx="730" cy="460" r="10"/><circle cx="760" cy="460" r="10"/><circle cx="789.99" cy="460" r="10"/><circle cx="819.99" cy="460" r="10"/><circle cx="850" cy="460" r="10"/><circle cx="880" cy="460" r="10"/><circle cx="910" cy="460" r="10"/><circle cx="1000" cy="460" r="10"/><circle cx="1030" cy="460" r="10"/><circle cx="1060" cy="460" r="10"/><circle cx="130" cy="490" r="10"/><circle cx="160" cy="490" r="10"/><circle cx="189.99" cy="490" r="10"/><circle cx="219.99" cy="490" r="10"/><circle cx="249.99" cy="490" r="10"/><circle cx="280" cy="490" r="10"/><circle cx="310" cy="490" r="10"/><circle cx="339.99" cy="490" r="10"/><circle cx="369.99" cy="490" r="10"/><circle cx="399.99" cy="490" r="10"/><circle cx="430" cy="490" r="10"/><circle cx="460" cy="490" r="10"/><circle cx="489.99" cy="490" r="10"/><circle cx="519.99" cy="490" r="10"/><circle cx="549.99" cy="490" r="10"/><circle cx="580" cy="490" r="10"/><circle cx="610" cy="490" r="10"/><circle cx="639.99" cy="490" r="10"/><circle cx="669.99" cy="490" r="10"/><circle cx="700" cy="490" r="10"/><circle cx="730" cy="490" r="10"/><circle cx="760" cy="490" r="10"/><circle cx="789.99" cy="490" r="10"/><circle cx="819.99" cy="490" r="10"/><circle cx="850" cy="490" r="10"/><circle cx="880" cy="490" r="10"/><circle cx="910" cy="490" r="10"/><circle cx="1000" cy="490" r="10"/><circle cx="1030" cy="490" r="10"/><circle cx="189.99" cy="520.01" r="10"/><circle cx="219.99" cy="520.01" r="10"/><circle cx="249.99" cy="520.01" r="10"/><circle cx="280" cy="520.01" r="10"/><circle cx="310" cy="520.01" r="10"/><circle cx="339.99" cy="520.01" r="10"/><circle cx="369.99" cy="520.01" r="10"/><circle cx="399.99" cy="520.01" r="10"/><circle cx="430" cy="520.01" r="10"/><circle cx="460" cy="520.01" r="10"/><circle cx="489.99" cy="520.01" r="10"/><circle cx="519.99" cy="520.01" r="10"/><circle cx="549.99" cy="520.01" r="10"/><circle cx="580" cy="520.01" r="10"/><circle cx="610" cy="520.01" r="10"/><circle cx="639.99" cy="520.01" r="10"/><circle cx="669.99" cy="520.01" r="10"/><circle cx="700" cy="520.01" r="10"/><circle cx="730" cy="520.01" r="10"/><circle cx="760" cy="520.01" r="10"/><circle cx="789.99" cy="520.01" r="10"/><circle cx="819.99" cy="520.01" r="10"/><circle cx="850" cy="520.01" r="10"/><circle cx="880" cy="520.01" r="10"/><circle cx="910" cy="520.01" r="10"/><circle cx="1000" cy="520.01" r="10"/><circle cx="249.99" cy="550.01" r="10"/><circle cx="280" cy="550.01" r="10"/><circle cx="310" cy="550.01" r="10"/><circle cx="339.99" cy="550.01" r="10"/><circle cx="369.99" cy="550.01" r="10"/><circle cx="399.99" cy="550.01" r="10"/><circle cx="430" cy="550.01" r="10"/><circle cx="460" cy="550.01" r="10"/><circle cx="489.99" cy="550.01" r="10"/><circle cx="519.99" cy="550.01" r="10"/><circle cx="549.99" cy="550.01" r="10"/><circle cx="580" cy="550.01" r="10"/><circle className="pulse" cx="610" cy="550.01" r="10"/><circle cx="639.99" cy="550.01" r="10"/><circle cx="669.99" cy="550.01" r="10"/><circle cx="700" cy="550.01" r="10"/><circle cx="730" cy="550.01" r="10"/><circle cx="760" cy="550.01" r="10"/><circle cx="789.99" cy="550.01" r="10"/><circle cx="819.99" cy="550.01" r="10"/><circle cx="850" cy="550.01" r="10"/><circle cx="880" cy="550.01" r="10"/><circle cx="910" cy="550.01" r="10"/><circle cx="939.99" cy="550.01" r="10"/><circle cx="969.99" cy="550.01" r="10"/><circle cx="1000" cy="550.01" r="10"/><circle cx="399.99" cy="580" r="10"/><circle cx="430" cy="580" r="10"/><circle cx="460" cy="580" r="10"/><circle cx="489.99" cy="580" r="10"/><circle cx="519.99" cy="580" r="10"/><circle cx="549.99" cy="580" r="10"/><circle cx="580" cy="580" r="10"/><circle cx="610" cy="580" r="10"/><circle cx="639.99" cy="580" r="10"/><circle cx="669.99" cy="580" r="10"/><circle cx="700" cy="580" r="10"/><circle cx="730" cy="580" r="10"/><circle cx="760" cy="580" r="10"/><circle cx="789.99" cy="580" r="10"/><circle cx="819.99" cy="580" r="10"/><circle cx="850" cy="580" r="10"/><circle cx="880" cy="580" r="10"/><circle cx="910" cy="580" r="10"/><circle cx="939.99" cy="580" r="10"/><circle cx="969.99" cy="580" r="10"/><circle cx="399.99" cy="610" r="10"/><circle cx="430" cy="610" r="10"/><circle cx="460" cy="610" r="10"/><circle cx="489.99" cy="610" r="10"/><circle cx="519.99" cy="610" r="10"/><circle cx="549.99" cy="610" r="10"/><circle cx="580" cy="610" r="10"/><circle cx="610" cy="610" r="10"/><circle cx="639.99" cy="610" r="10"/><circle cx="669.99" cy="610" r="10"/><circle cx="700" cy="610" r="10"/><circle cx="730" cy="610" r="10"/><circle cx="760" cy="610" r="10"/><circle cx="789.99" cy="610" r="10"/><circle cx="1000" cy="610" r="10"/><circle cx="430" cy="640" r="10"/><circle cx="489.99" cy="640" r="10"/><circle cx="519.99" cy="640" r="10"/><circle cx="549.99" cy="640" r="10"/><circle cx="580" cy="640" r="10"/><circle cx="610" cy="640" r="10"/><circle cx="639.99" cy="640" r="10"/><circle cx="730" cy="640" r="10"/><circle cx="760" cy="640" r="10"/><circle cx="789.99" cy="640" r="10"/><circle cx="1000" cy="640" r="10"/><circle cx="1030" cy="640" r="10"/><circle cx="519.99" cy="670.01" r="10"/><circle cx="549.99" cy="670.01" r="10"/><circle cx="580" cy="670.01" r="10"/><circle cx="610" cy="670.01" r="10"/><circle cx="1000" cy="670.01" r="10"/><circle cx="1030" cy="670.01" r="10"/><circle cx="549.99" cy="700.01" r="10"/><circle cx="580" cy="700.01" r="10"/><circle cx="1000" cy="700.01" r="10"/><circle cx="1030" cy="700.01" r="10"/><circle cx="549.99" cy="730" r="10"/><circle cx="580" cy="730" r="10"/><circle cx="1030" cy="730" r="10"/><circle cx="910" cy="610" r="10"/><circle cx="969.99" cy="610" r="10"/><circle cx="939.99" cy="520.01" r="10"/><circle cx="969.99" cy="520.01" r="10"/><circle cx="939.99" cy="490" r="10"/><circle cx="969.99" cy="490" r="10"/><circle cx="939.99" cy="460" r="10"/><circle cx="969.99" cy="460" r="10"/><circle cx="880" cy="340" r="10"/><circle cx="910" cy="340" r="10"/><circle cx="880" cy="370.01" r="10"/><circle cx="910" cy="370.01" r="10"/></svg>