<svg xmlns="http://www.w3.org/2000/svg" width="1" height="1" viewBox="0 0 136.78 138.08"><title>web</title>
  <g class="grp4"><line x1="68.53" y1="69.08" x2="113.53" y2="60.08" fill="none" stroke="#FFF" stroke-miterlimit="10"/><circle cx="116.03" cy="59.58" r="2.5" fill="none" stroke="#FFF" stroke-miterlimit="10"/><line x1="68.53" y1="69.08" x2="77.53" y2="24.08" fill="none" stroke="#FFF" stroke-miterlimit="10"/><circle cx="77.97" cy="21.9" r="2.5"/><line x1="68.53" y1="69" x2="77.53" y2="114" fill="none" stroke="#FFF" stroke-miterlimit="10"/><circle cx="77.97" cy="116.18" r="2.5"/><line x1="68.25" y1="69.1" x2="23.25" y2="60.1" fill="none" stroke="#FFF" stroke-miterlimit="10"/><circle cx="20.75" cy="59.6" r="2.5" fill="none" stroke="#FFF" stroke-miterlimit="10"/><line x1="68.67" y1="68.52" x2="5.67" y2="95.52" fill="none" stroke="#FFF" stroke-miterlimit="10"/><circle cx="3.42" cy="96.48" r="2.5" fill="none" stroke="#FFF" stroke-miterlimit="10"/><line x1="68.67" y1="68.52" x2="59.67" y2="113.52" fill="none" stroke="#FFF" stroke-miterlimit="10"/><circle cx="59.23" cy="115.7" r="2.5"/></g>
  <g class="grp3"><line x1="68.53" y1="69.08" x2="122.53" y2="33.08" fill="none" stroke="#FFF" stroke-miterlimit="10"/><circle cx="124.31" cy="31.89" r="2.5"/><line x1="68.53" y1="69" x2="131.53" y2="96" fill="none" stroke="#FFF" stroke-miterlimit="10"/><circle cx="133.78" cy="96.96" r="2.5" fill="none" stroke="#FFF" stroke-miterlimit="10"/><line x1="68.53" y1="69" x2="95.53" y2="123" fill="none" stroke="#FFF" stroke-miterlimit="10"/><circle cx="96.51" cy="124.96" r="2.5"/><line x1="68.25" y1="69.1" x2="5.25" y2="42.1" fill="none" stroke="#FFF" stroke-miterlimit="10"/><circle cx="3" cy="41.13" r="2.5" fill="none" stroke="#FFF" stroke-miterlimit="10"/><line x1="68.25" y1="69.1" x2="41.25" y2="15.1" fill="none" stroke="#FFF" stroke-miterlimit="10"/><circle cx="40.27" cy="13.14" r="2.5"/><line x1="68.67" y1="68.52" x2="14.67" y2="104.52" fill="none" stroke="#FFF" stroke-miterlimit="10"/><circle cx="12.89" cy="105.71" r="2.5"/></g>
  <g class="grp1"><line x1="68.53" y1="69.08" x2="68.53" y2="6.08" fill="none" stroke="#FFF" stroke-miterlimit="10"/><circle cx="68.53" cy="3" r="2.5" fill="none" stroke="#FFF" stroke-miterlimit="10"/><line x1="68.53" y1="69.08" x2="95.53" y2="15.08" fill="none" stroke="#FFF" stroke-miterlimit="10"/><circle cx="96.51" cy="13.12" r="2.5"/><line x1="130.53" y1="69.08" x2="68.53" y2="69.08" fill="none" stroke="#FFF" stroke-miterlimit="10"/><circle cx="132.78" cy="69.08" r="2.5"/><line x1="68.53" y1="69" x2="68.53" y2="132" fill="none" stroke="#FFF" stroke-miterlimit="10"/><circle cx="68.53" cy="135.08" r="2.5" fill="none" stroke="#FFF" stroke-miterlimit="10"/><line x1="68.53" y1="69" x2="122.53" y2="105" fill="none" stroke="#FFF" stroke-miterlimit="10"/><circle cx="124.31" cy="106.19" r="2.5"/><line x1="68.25" y1="69.1" x2="14.25" y2="33.1" fill="none" stroke="#FFF" stroke-miterlimit="10"/><circle cx="12.47" cy="31.91" r="2.5"/><line x1="6.25" y1="69.1" x2="68.25" y2="69.1" fill="none" stroke="#FFF" stroke-miterlimit="10"/><circle cx="4" cy="69.1" r="2.5"/><line x1="68.67" y1="68.52" x2="32.67" y2="104.52" fill="none" stroke="#FFF" stroke-miterlimit="10"/><circle cx="30.48" cy="106.71" r="2.5" fill="none" stroke="#FFF" stroke-miterlimit="10"/></g>
  <g class="grp2"><line x1="68.53" y1="69.08" x2="131.53" y2="42.08" fill="none" stroke="#FFF" stroke-miterlimit="10"/><circle cx="133.78" cy="41.12" r="2.5" fill="none" stroke="#FFF" stroke-miterlimit="10"/><line x1="68.53" y1="69.08" x2="104.53" y2="33.08" fill="none" stroke="#FFF" stroke-miterlimit="10"/><circle cx="106.72" cy="30.89" r="2.5" fill="none" stroke="#FFF" stroke-miterlimit="10"/><line x1="68.53" y1="69" x2="113.53" y2="78" fill="none" stroke="#FFF" stroke-miterlimit="10"/><circle cx="116.03" cy="78.5" r="2.5" fill="none" stroke="#FFF" stroke-miterlimit="10"/><line x1="68.53" y1="69" x2="104.53" y2="105" fill="none" stroke="#FFF" stroke-miterlimit="10"/><circle cx="106.72" cy="107.19" r="2.5" fill="none" stroke="#FFF" stroke-miterlimit="10"/><line x1="68.25" y1="69.1" x2="32.25" y2="33.1" fill="none" stroke="#FFF" stroke-miterlimit="10"/><circle cx="30.06" cy="30.91" r="2.5" fill="none" stroke="#FFF" stroke-miterlimit="10"/><line x1="68.67" y1="68.52" x2="23.67" y2="77.52" fill="none" stroke="#FFF" stroke-miterlimit="10"/><circle cx="21.17" cy="78.02" r="2.5" fill="none" stroke="#FFF" stroke-miterlimit="10"/><line x1="68.67" y1="68.52" x2="41.67" y2="122.52" fill="none" stroke="#FFF" stroke-miterlimit="10"/><circle cx="40.69" cy="124.48" r="2.5"/><line x1="68.25" y1="69.1" x2="59.25" y2="24.1" fill="none" stroke="#FFF" stroke-miterlimit="10"/><circle cx="58.81" cy="21.9" r="2.5" fill="none" stroke="#FFF" stroke-miterlimit="10"/></g>
</svg>